/* XPM */
static const char *wall_troll[] = {
/* columns rows colors chars-per-pixel */
"64 64 255 2 ",
"   c #060307",
".  c #020116",
"X  c #03031C",
"o  c #090C18",
"O  c #191416",
"+  c #150C0D",
"@  c #241A17",
"#  c #23140D",
"$  c #32241D",
"%  c #010424",
"&  c #01052A",
"*  c #03092E",
"=  c #080C28",
"-  c #0A132B",
";  c #020A33",
":  c #020D3A",
">  c #020733",
",  c #0C1333",
"<  c #02103E",
"1  c #0A1838",
"2  c #141B3A",
"3  c #141A37",
"4  c #1C1724",
"5  c #281B21",
"6  c #1A213D",
"7  c #0A213B",
"8  c #252629",
"9  c #373230",
"0  c #4A3732",
"q  c #69383C",
"w  c #674E3C",
"e  c #554839",
"r  c #021243",
"t  c #021649",
"y  c #01194D",
"u  c #0C1C46",
"i  c #141E43",
"p  c #011D53",
"a  c #021E58",
"s  c #010F41",
"d  c #1C2443",
"f  c #162349",
"g  c #02235C",
"h  c #082558",
"j  c #152958",
"k  c #1A3A59",
"l  c #102A47",
"z  c #242B48",
"x  c #293656",
"c  c #353B58",
"v  c #2C334D",
"b  c #022D6B",
"n  c #032964",
"m  c #04316E",
"M  c #183568",
"N  c #023373",
"B  c #02397B",
"V  c #033679",
"C  c #173B76",
"Z  c #162E61",
"A  c #2D3E6B",
"S  c #001F60",
"D  c #384555",
"F  c #1C437C",
"G  c #1C456D",
"H  c #254B77",
"J  c #295379",
"K  c #374A6C",
"L  c #484747",
"P  c #585858",
"I  c #514D50",
"U  c #66594A",
"Y  c #635850",
"T  c #736552",
"R  c #575966",
"E  c #475270",
"W  c #625E71",
"Q  c #5A6772",
"!  c #676768",
"~  c #656775",
"^  c #767578",
"/  c #736F71",
"(  c #483E4D",
")  c #8A7356",
"_  c #8A7A6A",
"`  c #885B44",
"'  c #7C807D",
"]  c #888379",
"[  c #958979",
"{  c #96856C",
"}  c #AA9476",
"|  c #AB9271",
" . c #A7926B",
".. c #CBAA75",
"X. c #013D83",
"o. c #003B8A",
"O. c #02438C",
"+. c #074285",
"@. c #174586",
"#. c #024995",
"$. c #024D9B",
"%. c #054993",
"&. c #174C96",
"*. c #05509E",
"=. c #1A529C",
"-. c #224788",
";. c #2C5A85",
":. c #325C87",
">. c #214D92",
",. c #235198",
"<. c #35648D",
"1. c #346592",
"2. c #386A98",
"3. c #3B709D",
"4. c #2E618D",
"5. c #0253A4",
"6. c #0156AA",
"7. c #0159AD",
"8. c #0D55A7",
"9. c #1755A5",
"0. c #015DB3",
"q. c #095EB6",
"w. c #195FB3",
"e. c #004DA0",
"r. c #245AA7",
"t. c #224BA5",
"y. c #0161B7",
"u. c #0163BB",
"i. c #1F62B7",
"p. c #3D73A3",
"a. c #3B79A9",
"s. c #2664B7",
"d. c #2D6EAC",
"f. c #475A82",
"g. c #4C6A90",
"h. c #697887",
"j. c #777A86",
"k. c #6B728C",
"l. c #4479A8",
"z. c #527EAA",
"x. c #6279A2",
"c. c #0266C1",
"v. c #026AC4",
"b. c #026EC9",
"n. c #0A68C0",
"m. c #1B67C4",
"M. c #0272CD",
"N. c #0275D1",
"B. c #037AD5",
"V. c #057DD9",
"C. c #0B7BD7",
"Z. c #137BD7",
"A. c #266CC7",
"S. c #2874D6",
"D. c #2F77D4",
"F. c #367DE2",
"G. c #877B8A",
"H. c #A27E8E",
"J. c #7C8389",
"K. c #718396",
"L. c #4681AD",
"P. c #4B85B5",
"I. c #558BB9",
"U. c #578BB4",
"Y. c #6B8FB3",
"T. c #0B81DC",
"R. c #1682DD",
"E. c #2F85DD",
"W. c #1B86E1",
"Q. c #2788E2",
"!. c #338DE6",
"~. c #3A8AE6",
"^. c #3B91EA",
"/. c #5894C5",
"(. c #5390D1",
"). c #6699C7",
"_. c #699ACF",
"`. c #68A3CD",
"'. c #75A3CC",
"]. c #6BABD3",
"[. c #78ABD4",
"{. c #79B4D9",
"}. c #4787E8",
"|. c #4D99ED",
" X c #4594EA",
".X c #549AED",
"XX c #579BF1",
"oX c #4F91EF",
"OX c #5BA3F4",
"+X c #4FA0F8",
"@X c #68AAF7",
"#X c #79B7FB",
"$X c #71ADEE",
"%X c #6597F3",
"&X c #888889",
"*X c #898B96",
"=X c #939293",
"-X c #A89A87",
";X c #AE9A8D",
":X c #B9A589",
">X c #B9A995",
",X c #B1A998",
"<X c #8A97AA",
"1X c #9BA5A9",
"2X c #B9BAB6",
"3X c #B1ADAB",
"4X c #C3AB8B",
"5X c #C1AE93",
"6X c #C7B499",
"7X c #D2BA95",
"8X c #C9BAA7",
"9X c #D2BCA5",
"0X c #CABAB7",
"qX c #CDC2AD",
"wX c #D4C3AC",
"eX c #D8C4A7",
"rX c #CBC4B7",
"tX c #D6C8B7",
"yX c #DCD1BF",
"uX c #E2CDB5",
"iX c #D8C19B",
"pX c #88B5DB",
"aX c #8DAFD0",
"sX c #88BBE3",
"dX c #96BDE3",
"fX c #81BDFC",
"gX c #9FB5CB",
"hX c #B7C6CE",
"jX c #99C7E8",
"kX c #86C2FD",
"lX c #90C8EB",
"zX c #A6CAE9",
"xX c #A8D6F3",
"cX c #B7D9F3",
"vX c #ADD3EC",
"bX c #B6E2FA",
"nX c #C6C8C6",
"mX c #DCD5CB",
"MX c #DCD3C3",
"NX c #DADBD6",
"BX c #D0CECC",
"VX c #E5D8C8",
"CX c #E5DCD2",
"ZX c #F5DFC6",
"AX c #ECE3DB",
"SX c #E7E2D9",
"DX c #F5E7D5",
"FX c #CBE7F9",
"GX c #EAE8E4",
"HX c #F3ECE6",
"JX c #F6F2ED",
"KX c #F8F8F6",
"LX c #EBF1F2",
"PX c #D1DEE4",
"IX c #B4C1BB",
/* pixels */
"X X X X % % % % % & & * > ; : < < r t b #.u.C.Q.|.@X#XfXkXkXfX@XXXQ.N.0.+.g : ; > * & % % % % % % X X . . . . . . . . . . . . . ",
"X X X % % % % % % & & * > ; < < < r p V 5.v.Z.~.|.@X#XfXkXkX#X@X.XQ.M.0.X.p : ; > & & % % % % % % X X . . . . . . . . . . . . . ",
"X X % % % % % % & & * * > : : < r t n O.0.M.Z. XXX@X#XfXkXkX#X@X|.W.b.6.V y : ; ; * & % % % % % % X X . . . . . . . . . . . . . ",
"X X % % % % % & & & * * ; : < r r p N $.u.N.Q. XXX@X#XfXkXfX#X@X|.W.b.6.V y : ; > * & % % % % % % X X X X . . . . . . . . . . . ",
"X % % % % % & & & * * > ; : < r t g X.6.v.C.!.|.OX@X#X#X#X#X#XOX XR.v.5.N r : ; * * * & % = = % X % % % X X . . . . . . X % . X ",
"X % % % % % & & * * > ; : : < r y b #.y.M.R.^.XX@X@X#X#X#X#X@XOX~.B.u.$.b x < < 1 , ; * = - = = z = % X = X X . . . X . 3 x . % ",
"% % % % % & & * * > > : : : < r p V 5.v.C.!.|.OX@X#X#X#X#X@X@X^.Q.R.D.d.;.<Xz 1 i 1 , , , , d x E d 2 c x , X X . . X X % 2 = * ",
"% % % % & & & * > > ; : : : r t n O.0.M.R.^..X@X@X#X#X#X#X@X|.{.BXZXDXVXCXNX1Xh.c 1 1 6 d 6 v f.E D c <Xx 3 - X X . X X % = , u ",
"% % % % & & * * * ; ; : : < r p b #.y.C.Q.|.OX@X#X#X#X#X#XOXcXJX9X[ [ eXeXZXHXAX3Xh.x v v z v x.f.K c g.x , 2 = . X X % = = 1 u ",
"% % % % & & & * > ; : : : < r g B 5.v.Z.~.|.@X@X#X#X#X#X@XFXMX! 9 $ 8 J.VXVXAXZXeX2X1Xh.D x z f.g.f.E x z 2 z 3 % X X = = , f j ",
"% % % % & & & > > ; ; : < r t n O.7.b.Z. XXX@X#X#X#X#X#XFX,X$ @ 0 0 _ Q 3XAXCXwX7X8XnXnXJ.z z K Y.E K c 3 d d , = X % % = i j M ",
"% % % & & & & > > ; : : < r p N #.y.M.Q. XOX@X#X#X#X#XcX^ I @   L *X3X2X=XJ.CXmX,X2XmXnX2Xj.g.K.K.g.E K z z d 3 3 = % = , f M C ",
"% % % % & & & * > : : < < t n X.5.c.C.Q.|.@X$X#XkX@XdXL D Y # 9 0 h.1XQ 1XJ.~ NXNX1X2XNX2X1X<Xx.f.x.f.K x.f.:.x , - - 2 i j M C ",
"% % % % & & & > ; ; : < r p b O.7.v.C.~.|.@X#X$X:.D v   ! U L R R x K z h.^ D ~ NX3XJ.nXNX*Xj.k.z K x 2 K x 3 z d 3 3 f f j M C ",
"% % % & & & & > ; ; : < r g B $.y.M.Z.~..X@X[.l v 0 4 @ P -X^ Q I D D R I ! 1XR R 2X=X*XnXSX&X&XE f x 3 d d - - d d 2 3 u M C @.",
"% % % % & & & > > ; : : t n X.5.c.M.W. XXX$XK.f h./ ,X>XQ / j.E d h.<X3Xv P 2XNX1XR 3X' =XnX2X=Xj.x d 3 3 , 3 2 3 6 d 2 f Z C @.",
"% % % & & & & > ; : : : p N %.0.v.C.Q. XOXg.D J hXAXHXDX&X8 Q f.J.3X~ 3X=X/ _ ] rX2XP ^ ^ nX1X&X*XE z z 3 - 6 z 2 2 i f j M C @.",
"% % % & & * ; ; : : : r g V *.y.v.C.!. XXXK.x.aXhX=X=X8XVX&X-X_ T Y ,XrX0XBXmXtX[ ,X2XP ! &X=XJ.&Xk.x x z 2 z z d 2 i f j C @.%.",
"% % % & % % % & ; : < t n X.e.u..X].$X$XjXaXz.(.=XI 3 4  .8X) ;X[ ;XVXCXSXJXKXKXGX,X[ P c 9 &X=XJ.J.x 6 d d d z d i f j Z C @.%.",
"% & % & i x j u r ; > g C r._.`.].!. X@X$XK.<Xz.w w I 4 0 4X4XyXCXVXMXmXGXHXKXLXGXGX,X{ L 9 L &X&X*Xc - 3 2 2 2 2 f f j M C +.&.",
"% & % R 2XMXNXhXgX<XY././.).s.n.b.W..XXX@X<X*XD q =X-X>X>X8X6X9XqX8X6X8XmXSXHXJXNXmX2X>X[ 9 9 ! ! =XE = 3 6 3 3 d f j j C @.@.*.",
"% % % z 9 L U )  .:XqXqX2XaX_.~.Z.Q. X|.@XK.2 P =XhX&X-XmXVXtX8X6X6X5X8XmXSXHXKXGXtXmXCXSX>X>Xj.! 1X~ = , 3 3 2 f j j Z C @.&.8.",
"% % & % & & & > > , 9 I ) | ..eXBXzX$X|.+XA.t.D *XQ ! ] ,XtXyX8X8X>X6XqXmXmXCXGXJXSXKXtXMX) ` -X^ ^ W , , , , 2 f j j M C @.&.9.",
"% % & & & * ; ; : t S V X.+.H E T } 7XtXhXkX@X'.=XI P ! / [ ,X8XqX>X>X>X8XtXMXVXSXCXAXtXMXVX9X` / _ j.2 , - , u j j Z M C @.=.9.",
"% % & & & & & > : y n X.5.u.N.V.Z.s.<.! { ..qXnXY $ 0 9 8 e _ 3XqX;X} >X6X6XwXtXMXmXmXwXCX7XuX;X! ! &Xz = , , u j j M C F @.=.9.",
"% % & & & & & > : p N O.5.y.v.C.W.^.+X X(.g.! ) Y ] :X) $ O / MX0X;X-X6X5X:X6XwXyXmXtXrXLXVX..VX! ! G.c , , 1 u j Z M C @.&.=.9.",
"% % & & & & & ; r g V #.6.u.M.C.W.!. X.XOXOX+XK.P T :XuX7X_ ] rXrX8X>X5X4X4X6X9XwXtX5X8XJXCX| MX! ! =Xc , 3 u u h M C @.&.&.*.8.",
"% % & & & & & : y n X.$.0.v.M.C.Q.~. X|.XXXX|.zX! 9 ) 6XVX8X[ ;X6X8X6X5X6X6X9XwXwX>X-X6XtXAX9X3XL P *XR 3 i f j Z C @.&.&.&.8.8.",
"% % & & & & > r g m O.5.0.v.M.C.Q.~. X|.XXXX|.hXI $ T :X>X[ ] [ :X:X>X>X6X6X9XtXtXG.0 } yXVXCXG.v R G.E 2 f j M C -.>.&.=.*.8.8.",
"% % & & & & ; r g V %.5.y.v.N.C.Q.~. X|.|.|.OXhXP Y ) :X-X[ [ -X8X>X:X:X:X5X6X9X8X/   0 ` H.3X! L R *Xc u j Z C H -.,.=.=.8.8.8.",
"% % & & & & : y n B $.7.y.b.N.C.Q.~. X|..X|..XBXNX=X{ -X,X-X] >XtXqX>X} } } ;X3X;X-X5   ( =X=X/ v R *Xc u j M C @.>.,.=.9.8.8.q.",
"% & & & & > r p b +.$.7.u.b.B.C.Q.!. X|.|.|. XLXnXP P ! &X^ _ ,X8X9X5X .{ _ &XG.[ 9XU + 2X=XG.j.c W k.z j M C -.@.>.=.9.9.8.w.m.",
"% & & & & ; t g N O.5.0.v.M.B.R.Q.!. X|.|. X XgX^ D 9 D I P [ -X:X} } { _ _ / / -X9X} _ nX=X&Xj.z W k.f Z C -.-.&.&.=.9.9.w.m.m.",
"% & & & & : t n B %.5.0.v.M.B.R.Q.!. X|. X^.|.1XL 8 O 8 8 9 T T T ) _ T I 0 I _ :X5XeXJXBX,XP *XI W E u Z C -.>.,.9.9.w.s.m.A.S.",
"& & & & > < p b X.#.6.y.b.N.C.R.Q.!.^. X X!..X*X9   o o + O $ @ $ $ $ 0 0 U ) | 5XwXCXKXAX3Xv =Xj.W E f M -.>.,.r.r.s.s.A.A.S.S.",
"& & & & ; r g m +.$.7.u.b.N.C.R.Q.!.^.^.^.Q.!.h.O     o O @ O O # # O 0 T { :X8XMXSXHXJXHX;X( ~ j.G.x j M H >.r.r.s.A.A.A.S.S.F.",
"& & & & : t g N O.$.7.u.b.N.C.R.Q.!.^.^.!.Q.W.a.8 . O @ @ O + + # # @ e ) } tXmXmXGXHXHXCX=Xj.j.W &Xc j M @.>.r.s.s.A.A.S.S.D.F.",
"% % & > < p n B O.5.0.c.M.N.V.R.Q.Q.!.!.Q.W.V.Q.g.4 4 @ @ O + + O + $ w _ :XmXmXVXGXHXAXtXG.*X<XP 8X=Xj M @.,.r.s.A.A.S.S.S.F.}.",
"% % & ; r p b X.#.5.0.v.M.N.V.R.W.Q.Q.Q.W.T.V.N.Z.2.4 O O + + +   $ U )  .>XyXCXCXGXHXAX0X&Xj.j.^ ;Xj.j M -.,.r.s.A.A.S.S.F.}.}.",
"% % & : y g N X.$.6.y.v.M.B.C.T.W.Q.Q.Q.R.V.B.N.b.C.2.4 + +   + Y :X>X:X>X8XqXMXCXAXHXSXrX^ k.^ L =Xj.j M F >.r.s.A.A.S.F.}.}.oX",
"% & > s y n V O.$.7.u.v.M.B.V.T.R.Q.Q.Q.R.V.N.M.b.u.c.:.+   O _ >X6XqX8X8X8X8XwXMXCXAXAXnX^ ^ I L ] j.x Z C @.r.s.A.A.D.F.}.oXoX",
"& & ; r p b B O.$.0.u.b.N.B.V.C.R.W.Q.W.T.V.N.b.v.y.7.8.h.9 e _ } :X5X5X8XwX8XwXMXCXSXAXnXG.! 8 O I ] k.Z m @.=.s.A.A.D.}.oX.X%X",
"& & : t g b X.%.5.0.u.b.N.B.V.C.R.W.W.W.T.B.M.v.u.0.6.o.).2XT )  .:X>X>X6XwXwXwXMXCXCXHXBX/ L 8 ! ! L &XK m @.=.w.A.S.D.}.oXXX%X",
"& > s y g N X.#.5.0.c.b.N.B.V.V.T.R.W.R.T.B.M.v.y.7.5.o.U.3X0 _ } 5X>X:X6XwXwXwXMXAXAXJXGXR 8 ! &XI 8 ! j.m @.=.w.m.S.D.}.}.oX%X",
"& ; r p n N X.$.6.0.c.b.N.B.V.V.T.T.T.T.C.N.M.v.y.7.5.o.Y.BXO T } 5X6X>X5X9XeXwXwXAXHXHXKX&XO P ] L L I *X@.+.9.w.m.S.D.F.}.oX%X",
"& : t a n V O.$.6.y.c.b.M.B.B.V.V.T.T.T.V.N.b.c.y.6.*.X.aXSXO w } 4X5X5X6X9X9XeXwXyXAXGXJXCXL I / 8 9 I &X:.&.9.w.m.A.S.F.}.oXXX",
"> s y g b B O.$.7.y.v.b.M.B.B.V.V.T.V.V.B.M.b.c.0.6.$.X.gXGXR T } :X:X6X6X6X6XwXwXwXVXDXAXPXaX'.aXK.~ ~ <XY.&.8.w.m.A.S.D.F.}.oX",
": r p n N B %.5.7.y.v.b.M.N.B.B.V.V.B.B.N.M.v.y.0.5.$.X.hXLX1XU  .} :X7X7X4X5X6XtXZXVXnXY.P.).[.pXjXjXjXjXjX).s.i.m.m.m.S.F.}.oX",
": t g n N X.#.5.0.y.v.b.M.N.B.B.B.B.B.N.M.b.c.y.7.5.#.X.PXGX! 9 ) | } 4X6X5X7XiXrXIXY.l.l.z.P.I.'.[.aXpXdXjXzXdXdXpX_.E.S.F.}.}.",
"r p g b V O.$.5.0.y.v.b.M.N.N.B.N.N.N.M.b.v.u.0.6.$.O.+.GXNXL # ) {  .4XiX7X-XK.<.:.<.2.g.l.U.'.pXpXpXpXpXpX[.pXzXcXcXvXsX}.F.}.",
"r p n N B O.$.6.0.u.v.b.M.N.N.N.N.N.M.b.v.u.0.0.5.$.O.+.LXNXL # U )  .-X=XQ H G ;.<.l.U.U._.[.'.pXpX'.pXpX).).l.P.jXjXdXcXvX.XF.",
"t g n N X.%.$.6.0.u.v.b.N.N.N.N.N.M.b.v.c.y.0.6.5.#.X.@.GXnXI # U P D x k G J :.2.P.P.P.).).I.).[.Y.l.`.I.L.I.4.3.[.dXdXdXvXzXoX",
"y g n V X.#.5.7.y.u.v.M.N.N.N.N.M.b.b.v.u.y.0.5.5.#.X.@.GXIX^ D 6 = l k J ;.:.l.l.3.p.I.I.l.U.`.U.2.P./.3.P.l.;.2././.).aXdXdXdX",
"p g b B O.#.5.0.y.u.v.M.N.N.N.M.M.b.v.v.u.0.7.5.$.#.X.F PXY.z   o k H J ;.<.3.p.p.P.P.l.l.l.l.2.2.:.I./.3.P.p.1.p.p.l.'.zXcXcXzX",
"p n m B O.$.5.0.y.c.v.M.N.N.N.M.M.b.v.c.y.0.7.5.$.#.V l./.l   - M H J J ;.<.2.p.P.l.2.p.l.l.2.:.1.;./.P.2.l.1.2.:.l./.`.dXvXcXcX",
"g n N X.O.$.6.0.y.v.b.M.N.N.N.M.b.b.v.u.y.0.6.5.$.#.V I.].I.<.k k k M J 1.2.3.p.3.4.2.3.2.l.1.1.4.J L.P.1.p.;.;.l.I.I.).pXzXcXcX",
"g n N X.%.$.7.0.u.v.b.M.M.N.M.M.b.v.c.y.0.0.5.5.$.o.=.xXlX/.4.G 7 k <.l.2.1.1.1.1.2.p.1.1.l.4.1.J H k p.2.2.H 2.P.P.P./.[.zXcXcX",
"g b V X.%.$.7.0.u.v.b.M.M.M.M.M.b.v.u.y.0.7.5.5.#.O.pXbXI.k X z U.{.{.].I.I.p.1.<.<.1.J 2.l.4.<.k 2.- H p.J ;.l.l.P.I./.`.zXcXcX",
"n b V X.%.$.6.0.u.v.b.M.M.M.M.b.b.v.u.y.0.6.6.$.$.[.bX{.d.l.Y.xXlX].].].sX].{.sXI.L.g.Y.I.l.1.J k L.o l 1.H 3.l.l.P.I.P.I.dXcXcX",
"n b V X.%.$.6.0.u.v.b.b.M.M.b.b.v.c.y.0.0.6.$.d.dXcXxXlXxXbXxXlX`.].lXsX`./.jXpX{.lXcXxXI.l.2.k g.P.o 1 1.<.2.1.l.I.P.P.P.pXcXvX",
"n m V X.%.$.6.0.u.v.b.b.b.b.b.v.v.y.y.0.5.5./.xXxXjXxXcXcXjX{.].].jXjX]./.{.jX`.{.jXFX[.L.l.2.g.'.L.o - 2.;.J k ;./.P.P.p.'.cXzX",
"b N B X.%.$.5.0.u.v.b.b.b.b.v.v.u.y.0.6.d.{.xXxXjXxXbXcXlX].].].pXxX{.`.].jX`.I.'.xXvXP.P.l.3.FX{.a.- 1 1.:.G 7 G /.l.P.p.).cXzX",
"b N B X.O.$.5.0.y.v.v.v.v.v.v.u.y.y.7.(.xXxXxXcXxXbXcXlX].].].].cXlX].`.sX`.P.).vXxX{.p.P.L.<.vX`.L.- - 1.2.;.l J /.l.l.2.).cXzX",
"b N B +.O.$.5.0.y.u.v.v.v.v.u.y.y.7.(.xXxXjXcXcXxXbXxXsX`.`.].jXxX].].pXcXhXPXLXKXxXI.3.P.L.;.zX).l.= - 2.2.;.7 :.P.l.l.1._.vXjX"
};
