/* XPM */
static char *acd1f05503274eb983cf721e0eac85f4xH72wtQSeMCnKZHB[] = {
/* columns rows colors chars-per-pixel */
"64 64 232 2 ",
"   c #271E17",
".  c #3C1D15",
"X  c #3B2617",
"o  c #34261B",
"O  c #342A1D",
"+  c #3C2B1C",
"@  c #3A301F",
"#  c #2C2922",
"$  c #352B22",
"%  c #3C2E22",
"&  c #3B2F28",
"*  c #3C3223",
"=  c #353128",
"-  c #3C352B",
";  c #3D392C",
":  c #3E3C33",
">  c #3F3F38",
",  c #431B0D",
"<  c #4C1A09",
"1  c #591A07",
"2  c #541C0A",
"3  c #5A1D09",
"4  c #471C12",
"5  c #531F11",
"6  c #6C1C06",
"7  c #631E0A",
"8  c #4F200F",
"9  c #52210D",
"0  c #5C220D",
"q  c #472314",
"w  c #4B2214",
"e  c #492817",
"r  c #452419",
"t  c #432B1D",
"y  c #4C2D1B",
"u  c #552415",
"i  c #5A2513",
"p  c #542C16",
"a  c #5C2A16",
"s  c #52251A",
"d  c #542C1B",
"f  c #5B2C1A",
"g  c #46321E",
"h  c #4B311D",
"j  c #54321D",
"k  c #5B321D",
"l  c #53381F",
"z  c #69260D",
"x  c #72260A",
"c  c #7B2D0C",
"v  c #70300F",
"b  c #612410",
"n  c #642B13",
"m  c #692C16",
"M  c #732C12",
"N  c #762F15",
"B  c #663216",
"V  c #6A3415",
"C  c #63341B",
"Z  c #6B321C",
"A  c #693A1C",
"S  c #733113",
"D  c #7C3213",
"F  c #72341B",
"G  c #733A1D",
"H  c #7A3A19",
"J  c #442E23",
"K  c #492E21",
"L  c #433324",
"P  c #4B3424",
"I  c #463827",
"U  c #4B3925",
"Y  c #43362A",
"T  c #4C3529",
"R  c #443A2D",
"E  c #4B3C2C",
"W  c #523423",
"Q  c #5C3422",
"!  c #553927",
"~  c #5C3A25",
"^  c #53372A",
"/  c #533C2C",
"(  c #5A3C2B",
")  c #443C33",
"_  c #4B3E33",
"`  c #493E39",
"'  c #533F32",
"]  c #5C3F31",
"[  c #632C21",
"{  c #6B3524",
"}  c #623925",
"|  c #673A26",
" . c #753722",
".. c #3F463A",
"X. c #7B421D",
"o. c #4B402F",
"O. c #53412D",
"+. c #5B422D",
"@. c #454236",
"#. c #4C4235",
"$. c #45443B",
"%. c #4B453B",
"&. c #45493E",
"*. c #4C493D",
"=. c #534334",
"-. c #5C4434",
";. c #544A36",
":. c #5C4B35",
">. c #52453B",
",. c #5B463A",
"<. c #534A3D",
"1. c #5B4C3C",
"2. c #54513F",
"3. c #5C513D",
"4. c #624127",
"5. c #62432D",
"6. c #6D4128",
"7. c #77452A",
"8. c #634533",
"9. c #644B35",
"0. c #694837",
"q. c #624C3D",
"w. c #6B4C3C",
"e. c #64523C",
"r. c #6B523D",
"t. c #755437",
"y. c #79593C",
"u. c #464741",
"i. c #4B4640",
"p. c #464A42",
"a. c #4C4B43",
"s. c #4E4E49",
"d. c #524741",
"f. c #534C43",
"g. c #5B4D43",
"h. c #534E49",
"j. c #594E49",
"k. c #4E5146",
"l. c #4E514A",
"z. c #545145",
"x. c #5B5245",
"c. c #5E5944",
"v. c #54534B",
"b. c #5B554B",
"n. c #55594D",
"m. c #5B594E",
"M. c #565651",
"N. c #5A5651",
"B. c #565952",
"V. c #5C5B53",
"C. c #5D5D59",
"Z. c #624E42",
"A. c #635344",
"S. c #695443",
"D. c #625845",
"F. c #6C5942",
"G. c #62554C",
"H. c #69564C",
"J. c #635B4D",
"K. c #6B5A4D",
"L. c #745A47",
"P. c #7C5D4A",
"I. c #615652",
"U. c #635C53",
"Y. c #6A5C53",
"T. c #625E59",
"R. c #6A5F58",
"E. c #755E52",
"W. c #5E6055",
"Q. c #5E615B",
"!. c #6E6049",
"~. c #79624D",
"^. c #646155",
"/. c #6B6255",
"(. c #64625B",
"). c #6A635C",
"_. c #6C695E",
"`. c #736554",
"'. c #73655D",
"]. c #7B6458",
"[. c #73695D",
"{. c #7B6B5B",
"}. c #5F6261",
"|. c #656462",
" X c #6B6662",
".X c #656A64",
"XX c #6C6A63",
"oX c #676D68",
"OX c #6C6D69",
"+X c #706461",
"@X c #736C64",
"#X c #7D6A65",
"$X c #726E6A",
"%X c #6C716D",
"&X c #747066",
"*X c #7A7268",
"=X c #797070",
"-X c #8A2B05",
";X c #853C1A",
":X c #933C12",
">X c #85451C",
",X c #98491C",
"<X c #96561A",
"1X c #B1561E",
"2X c #884726",
"3X c #8C4924",
"4X c #904926",
"5X c #8B532A",
"6X c #95562B",
"7X c #9F5B2A",
"8X c #8B4D34",
"9X c #86593A",
"0X c #9A5A32",
"qX c #A85D25",
"wX c #B05F24",
"eX c #A55E33",
"rX c #95603C",
"tX c #A6652C",
"yX c #B36325",
"uX c #AA6834",
"iX c #825E4A",
"pX c #896548",
"aX c #836C4C",
"sX c #886A57",
"dX c #936F52",
"fX c #9E7E6F",
"gX c #837E76",
"hX c #85837B",
"jX c #9B8878",
"kX c #A4907F",
"lX c #8A8C85",
"zX c #8C908B",
/* pixels */
"_ |.XX(.;.g.%.* =.v.V.m.a.%.a.j.<.=.U.x.B.OX%X|.f.m.=.=.G.x.+ ;.<.#.=.7.S.A.U.U.( H.m.$.m.%.z.*.m.f.v..Xz..XV.*.a.a.V.C.#.N.;.B.",
"(.|..XXXm.m.T.=.<.=.v.v.b.>.g.O.8X8Xg.x. X%X.X#.G.b.* E Z.J <.W h g h J.7.D.J.Y.4.5.A.v.T. X*XF.A.^.U.%XU.b.z.f.*.C.V.n.b.C.C.Q.",
"XXC.OX X).I.T.t P E g.@.x.b.f.f.x.g.(.).OXOX).|.J.#.R * f.g.<.T g.$ O 2._ m.G.8.q.R.fX^.U.)./.*Xf.(.(.(.'.g.w y P j.C.V.M.C.).@X",
"C.U. Xb.(.(.^.P %.E x.%.g.g.} S.q.x.).T.^.(.J.XXU.#.J.h.; x.; h.v.E I E m.@X[.t.K.fX@X(.(.).).).C.U.a.h.g.z.>.i >.u w ; V.B.T.).",
").: x.o.#.^.h 9 L J.;.#.1.( Q >.9X=XT.@XgX@Xr./.).jX[.(.v.C.(.v.; g.G.o.x._.Y.<.; /.T.B.B.V.(.U.i.i.N.` & C.v.i u < y N.V.OX&X&X",
"U.) ).R.G.).Y.{ e | _ $.#.O.=.i.T.v.*.gX$XhXkXkXx.[.).(.V.^.[.v.C.#.C.(.P ^.9Xx.; U.T.T.C.T._.J.N.C.%.*.R v.N.s * _ %.: C.XX).XX",
"T.v.v.R P q u Z 9 E = @.I b./.T.C.f.T.).(.b.A.@X).&X@XXX^.(.P K T.(.T.) *.(.G.f.m.).@XXXV.b.b.$.%.f.$.%.- N.C.C.V.v.B.M.T. X[.1.",
"m.|.).|.(.L t ~ f w $ %.#.a.=.v.v.B.U.<.V.(.b. X@X@X(.^.U.{.{.@X@XC.s.s.Q.v.m.g.z.V.^.W.V.b.).f.g.h.a.*.l.v.z.C.U.C.B.V.T.C.XX(.",
"b.R. .U.R * Y b.u     O #.L O M.B.C.<.U.(.(.V.V.XXf.U.C.g.G  .A.+ - * - N.s.j.m.B.n.n.v.m.m.v.f.z.*.*.i.N.z.N.m.V.(.n.$XXXC.XXC.",
").J.K.m.B.(.C.U.{   %._ o o $ XXz.oXU.z.C.Q.T.B.C.).B.).v.x.Y.% o b.f.<.z.v.B.C.V.C.n.M.v.x.f.*.*.<.f.*.z.v.v.f.b.V.C.XX$X XC.U.",
"B.U. .x.B.(.v.- #.# v.O - m.N.|.Q..X(.v.(.^.%.B.)._.C.T.v.a.% v.b.b.v.z.v.(.C._.C.n.n.U.U.U.V.>.O.x.-.@.*.a.f.z.k.s.<.y  XC.B.C.",
"m.T.x.m.B.=.E O I E v.= s.(.}.}.B.U.m.x.m.m.f.N.C.C.b.b.v.v.O p.% b.C.b.v.B.V.^._.Q._.C.).&XU.<.8.x.f.%.$.@.@.z.a.f.Z j.U. XU.).",
"_.(.(.C.B.C.a.v.z.V.v.V.V.Q.C.}.Q.v.f.g.b.z.v.V.).C.b.b.(.V.a.l.p.x.x.).B.B.V.).J.)./.XX(.T.m.I.b.b.z.%.: : ) f.g.H.N Z.q #.G x.",
" XC.Q.C.B.C.#.1.1.1.<.m.C.C.B.V.N.j.f.J.g.x.x.V.Y.J.C.b.C.f.p.p.N.V.v.(.b.T. X)./.H.J.). XXXV.b.v.v.s.: @.$.$._ m x 6 F a 8 >XA.",
"). X%X|.|.N.v.1.Z / g.{ N.(.B.v.M.m.a.f.b.J.b.m.J.U.N.v.v.f.u.l.v.v.V.v.<.b.z.) m.@X*X@X(.v.h.b.z.$.i.: %.f.%.$.=.z 6 6 3 7 x 5X",
"M.M.oXoX).U.Y.c.b.d.Z  .T.(.s.I.C.V.M.z.J.b.(.|.|.B.U.<.m.v.v.V.v.V.C.m.<.z.R H.x.[.lXzXM.T.I.h.h.f.#.U <.> j.f.g.m 6 1 n S ;Xq.",
"XXm.B.m.b.b.Y.J.f.T ^ b.s.a.v.^.C.v.C.v.b.m.C.C.V.b.C.N.J.N.N.(. X|.V.m.b.f.%.) <.c.J.lX X(. XC.m.6XuX4.6X-.s g.Z q.z 1 2 B Z.3X",
"v.^..XU.|.U.m.<.<.R d.| C.v.b.W.(.v.v.v.J.(.C.m.U.x.<.b.G.b.m.v.|.B.V.C.V.B.<.R ) x.%.#.V.|.oX(.N.rXA.x.5XtX-.y / w z 2 n 0 j.b.",
"$.(. XJ.V.U.x.b.<.#.N.m.v.p.s.V.W.T.M.B.N.U.#.x.Y.P.P.g.<.f.m.). X X).V.C.T.R R %.^.f.K.E. X Xl.).5Xg.S.qXD M q.n < < / 3 7 u x.",
") $.T.<.b.b.%.%.;.;.b.v.m.N.v.M.M.V.M.M.s.v.j.g.H.F.P.U.x.f.x.U.U.T.C.N.N.v.E E o.z.z.v.b.|..Xp.x.2X,XyXyX} x m 9 4 < 2 7 <.5.8.",
"$.<._ H.).c.g.J.c.b.<.<.m.s.s.s.v.M.M.m.v.s.h.) R b.b.L.Y.N.U.s.V.k.C.m.1.v.,.z.z.z.@.$.$.s.v.$.i.:.2XwX1Xc ~ v.x.z.F >.u f.z.z.",
"U.R . ' -.( y A.K.K.v.v.N.m.C.l.B.(.M.s.p.v._ b.) _ '.b.U.Y.Y.j.v.Q.C.m.U.N.b.T.&X@Xz.z.s.N.b.s.(.i.x.9.qXc Z m.B.v.f.M.h.N.f.C.",
"4 , U.-., r P ).oXU.b.V.m.V._.M.C.G.a.v.p.v.v.%.U.U.#X#X#XY.b.v.v.m.m.B.M.C.T.T.(.(.v.z.l.C.U.`.J.3.z.a 9.G.m.B.m.B.C.p.u.a.C.h.",
"K.G -.O.8.-.G.~ +Xb.B.b.v.V._._.U.#.#.b.x.XXm.v.m.U.(.#Xm.b.z.v.n.U.N.U.U.(.@XN.V.(.).(.b.v.).{.{.J.c.:.b.g.V.m.m.B.M.v.B.p.).x.",
"C >./ . ( -.).U.v.(.C.x.(.U.`.U.).T.T.C.V.OXm.Y.m.J.Y.#XM.v.#.J.Y.U.U.J.b.V./.@Xv.B.V.[.K.J./.~.aXJ.J.Y.m.<.V.J.x.v.p.&.N.&.~ f.",
"F 0 b J ( i a >.C.x.j.C.B.N.v.C.V.v.x.x.x.Y.x.m./.m.T.).^.b.b.Y.^.U.U.U.V.B.C.V.V.sXdXdXsX{.`.K.K.J.<.<.f.Y.C.m.0 f b.f y j.G.N.",
"-.M 3 2 0 K X.g.(.C.C.j.v.C.C.).z.- *.b.b.m.m.U.m.m.^.*X).b.A.b.^.T.m.m.m.b.v.B.(.T.I.K.E.sX].sX]./.R c.<./.G.Z.n q././.G.f C g.",
"c 7 S 3 z i >Xx.b..X).V.M.C.m.v.- - ;.m.J.m.^.m.m.W.B.).^.A.b.^.m.Y.m.V.m.v.v.m.T.j.d iXQ `.[.'.R.Y.Y.).B.B.v.C K.a w >.w >.b.,.",
"x c -X~ m T U.v.T.|.(.OXC.V.V. Xv.C.m.W.m.m.^.^.m.W.^.^.S.D.b.G.g.V.v.V.v.v.v.v.N.P 4 pXiXsX/./.U.) m.U.f./.(./.U.4 4 #.T m.m.V ",
"v W n eXeXH.(.f.(.(.(.XXN.N.C.|.n.m.m.%XC.m.m.^.V.a.A.S.7X6Xb.V.B.v.m.v.a.v.v.b.x.1.g O.a ,.~.'.U.b._ g.N.,.v.l.) r ,.t r U.(.g.",
"v v eXK.8.-.U.>.f.C.V.V.m.).U.|.^.^.m.V.B.U.m.m.m.v.b.D.6X9.<.z.V.B.v.z.v.j.m.g.x.J.-.A.+.A.~.Y.E ,.x.R >.f.Y * R f.T.) g.x.a.%.",
"#.I 0X=.b.+.H f b.V.C m.b.g.C b.v.m.v.m.b.m.b.b.b.a.n.b.g.%.%.m.V.M.U.N.v.g.L.x.g.x.V.<.U.Y.aX/.g.T x.=.=.f.f.L L x.b.=.g._ g.<.",
"@.) -.L #.W u T w f.g.j.g.a ' >.p %.z.x.v.x.x.b.b.b.m.B.g.%.>.z.A.f.v.n.U.C.f.m.g.T.).K.Y.(.).~.=.-.=.E I L =.*.a.x.U.>.E / <.*.",
"%.%.hXg.@X2X'._ e f.P s u / f p z.v.a.*.*.a.a.*.*.&.$.*.f.=.3Xw.,X} v.v.T.T.f.f.V.U.(.Y./.V.^./.J.^.b.L %.I <.L *.Q 1.k y U ,.b.",
"v.C.zXhX/.( y q y G.E q.D c 3 E f.b.z.<.<.*.*.*.f.$.$.$.>.%.w.M ,XA.x.b.U.T.U.C.U.).).)./.(.B.m.V.V.R * L +.+.W :.C f k -.k 5.N.",
"J v.B.#.B.XXL E U.Y.} H Z.e 3 2 i g.<.q.J.J.<.*.$.$.$.#.6.-.:X-X>Xe.~ z.v.m.v.m.V.b.b.C.(.B.v.m.^.U.f.x.z.A.-.U H H C f k E g.g.",
"#.N.B.N.T.V.Y f.R.).G.A.I.Y =.L 1.f x.J.J.2.%.f.%.=.%.y :X:X6 n 2X9Xx.f.f.v.b.x.x.m.N.Y.Y.v.v.v.^.N.*.v.v.I.G.Z.f V V 4.p e P U ",
"K.).).*X(.V.n.|.(.K.} d f % Y @ c.q.O.D.<.J.,.=.4X4X=.R E / ;Xb 1.J.x.g.f.f.v.v.N.N.z.J.B.%.%.#.v.v.R z.b.V.G.X.p C n V p A | 4.",
"*.b.N.(.*X<.C.T.(.^.^.z.t %.*.u w.;X,.U h =.3X>.-.<.$.) #.<.uXq.3.m.m.g.g.z.z.z.v.v.N.m.(.x.b.U.%.$.a.f.b.x.=.j d B j G C A A +.",
"v.*.$.m.V.G.V.V.XXU.T.v.L a.a.m.c.l / g.q.h r.;.3Xx.z.z.%.*.e.3.x.b.b.z.G.x.z.v.b.b.V.(.(.b.(.b.%.) _ *.f.% K j y k G B p 4.=.b.",
"*.T.f.H.b.b.I.C.OXV.N.(.^.z.+ L :.:.J.A.;Xp 3X/ -.E *.*.%.f.z.3.z.b.v.v.U.J.m.J.V.v.T.G.b.%.b.<.c.m.f.f.f._ P / k ( 6.0.W w.r.S.",
"g.T.(.J.D.b.N.b.B.B.T.U.m.* + b.Y.D.J.J.A.<.O.%.o.%.z.$.$.%.*.z.f.v.z.l.b.J.M.V.v.f.(..XT._ %.b.b.J.b.b.j._ J J J ^ ] / -.q./ Z.",
"f.Y H.H.D.b.G.I.V.B.C.U.N.v.X L J./.D.D.b.b.%.z.z.a.<.$.$.&.v.v.1.$.i.h.b.U.V.C.(.(.V.|.C.H._ f.'.U.m.g.=.t P J k k ( + L T ^ ^ ",
"/ t _ - a.m.(.V.T.(.T.V.M.b.% D.J.J.*.$.%.*.&.z.*.f.*.%.%.z.m.x.b.k.p.Q.h.N.v.B.V.v.M.v.).(.'.#XG.f.g.P =.} 1.Z.Z.-.A.-.y | ~ E ",
";.E g._ a.h.V.V.B.v.s.a.V.b.z.-.O.;.$.$.%.f.<.x.c.f.f.v.*.b.m.b.m.k.- C.p.s.s.h.M.M.C.T.G.g.%.'.%.f.f.g.-.C } x.g.#.q.T y y 6./ ",
"I x.m.#.(.(.B.l.B.^.T.V.C.V.m.b.%.$.$.$.%.%.W =.p _ %.z.b.*.k.v.m.v.v.b.v.v.v.x.M.B.v.V. Xb.b.K.U.).b.R.H.K Q _ _ O.:.E iX;.1.I ",
"- x. X X|.M.v.s.s.v.B.V.C.C.a.*.*.$.%.*.*.*.W v.g.p g.z.m.m.v.m.C.v.m.v.x.x.x.b.x.T.g.g.A.V.).Y.#.Y.^ +.t =._ t E O.$.<.z.>._ ;.",
"- ` V.).G.v.B.v.M.C.C.j.C.m.v.a.<.$.*.<.<.*.#.h.j.f._ r x.m.C.m.k.z.v.v.h.b.x.v.U.T.%.J.g./.R.b.R z.R =.X + ) Y g.m.<.b.b.f.R f.",
") O f.0.j.M.M.M.v.v.f.Y f.<.<.f.d.*.$.%.*.f.u L a ,.r _ f.f.v.s.h.l.z.v.v.l.v.v.T.G.%.j.#.m.Y.K.H.<.f.<.O o + * &.m.>.%.b.x.z.x.",
"%.) J d.s.i.%.h.C.V.u.<.5.' a ' %.%.$.%.*.v.g.g.f a / E z.f.<.%.<.f.3Xs.l.v.v.h.G.x.G.b.%.A.K.J.!.Q f.f.1.* o + g.G.,.>.>.>.x.A.",
"%._ t J %.f.i.v.f.R *.<.b 7 [ a #.) %.*.i.&.&.g.a 0 q =.<.>.f.D 3X<.<.v.g.! a.$.h.V.B.V.H.H.Z.Q J.g.b.V.Z.x.%.; ' f.c.>.%.#.x.x.",
"B.%.>.>.8.f.) v.v.$.5.5.{ 7 b #.#.@.#.*.$.&.f.z.=.P <.<.a.) >.B q.n n %.^ ) f.f.f.j.s.m.U.Z.Q 1.J.Q e.q.I #.a.i.; L <.b.G.b.H.T.",
"N.j.x.x.>.f.v.N.v.f.k n ,X{ | #.*.f.*.&.$.i.&.f.f a <.<.x.x. .m.m.S Z F T > #.f.p.f.p.M.T.v.g.U.Y.x.A.Z / *.: p.%.z.b.f.b.K.K.H.",
"N.N.g.E.| K.T.b.z.x.Q +.<X~ >.*.*.a.a.&.p.a.f.0.,.g.b.c.b.V.b.V.v.a.z.>.w N.N.C.p.v.V.B.V.U.D.x.z.v.b.0.q.b.v.%.v.f.m.v.f.U. XC.",
"C.|.f.G H.l.C.N.x.U.<.1.<X1.<.! g.x.z.f.<.0.G.w.x.J.U.^.U.V.b.b.M.h.g.S 5 j.d U.B.b.a.V.T.T.V.z.v.m.x.d O - @.q h.g.b.f.>.b.U. X",
"|.f.`.K.| <.(.f.a.V.z.x.g.M ,.1.*.x.J.f.i.%.f.J.U.w.U.W.n.U.v.V.x.f i Z w.aXt.F.v.s.v.v.v.v.T.b.&.x.P Y %.% , t ) f.f.v.b.S.g.G.",
"G.K.2X,.U.U.(.m.V.V.B.v.f.:.9.tXg =.J.f.a.j.b.J.r.J.Q.^.U.C.v.V.,.x.1.9XG pXaXF.v.i.%.V.B.$.v.$.f.P x.a.R , , %.f.h.v.v.x.Y.w. .",
"0./ ,X7.>.%.b.U.x.x.a.<.f.:.D yX-.F #.*.f.b.U.m.V.Q.n.v.a.f.D.m.k C 1.G pXF.b.b.x.$.v.v.V.f.$.f.v.%.x.) g.w < q $.v.b.v.v.f.G W ",
";XP.dX3.z.*.g.U.m.a.n.*.f.1.e.tX9.7X;.a.j.m.b.b.v.C.m.v.N.M.b.f.b.8.y.t.A.A.A.x.*.h.$.a.$.z.v.f.i.i.: *.%.%.q ) f.h.f.v.f.% t 8.",
"x.^.J.c.aXdXaXV.V.V.C.x.3.3.f.e.x.1.#.$.*.^.U.m.v.v.m.V.C.*.*.*.<.+.y.y.H.I.b.%.E f.f.f.) f.%.f.p.i.p.s.a.s.i.h.s.$.W b.v.*.% + ",
"3.`.J.pX:.aXE ;.V.C.V.N.x.z.z.b.*.@.#.%.&.z.^.).V.m.J.U.z.*.*.%.O.,.!.J.L.G.g.T P % %._ ` z.f.s.i.&.s.s.i.i.@.a.$.$.@.z.%.b.f.=.",
";.;.#.E L >.#.#.v.N.J.b.T.b.f.f.f.@.&.a.*.^.U.(.V.B.J.J.x.*.; ; Y <.J.B.G.J.H.^ E P R x.b.b.( f.f.u.p.p.i.&.i.a.s.C.v.v.z.=.<.E ",
"b.^.R @ R O * O R <.x.2.b.v.*.*.%.*.<.a.U.N.V.(.V.m.J.b.x.x.g.<.b.%.H.H.D.x.c.=._ o O R r R - a.f.a.i.$.$...a.&.s.(.(.C.N.E E O.",
"=.C.^.; L * f.o.#.z.<.b.C.C.b.b.f.%.z.s.b.B.oX_.V.N.H.U.U.T.z.b.f.+ x.x.c.x.c.#.$ $ / f.;.x.s.a.v.'..Xa.$.p.|.a.&.s.C.b._ f.f.=."
};
